<svg width="167" height="30" viewBox="0 0 167 30" fill="none" xmlns="http://www.w3.org/2000/svg">
<path d="M32.947 0.167969L26.9902 23.3097L50.132 29.2665L56.0887 6.12472L32.947 0.167969ZM43.2263 17.5638L38.6929 16.4041L39.8526 11.8706L44.3861 13.0303L43.2263 17.5638Z" fill="white"/>
<path d="M15.6035 2.75098C21.613 2.75098 24.3015 6.33557 24.3015 9.92017C24.3015 12.1342 23.3526 13.9792 21.5603 15.1916C24.1433 18.0909 25.672 22.0445 26.1992 26.6307H15.2345C14.7601 20.305 13.4422 17.7747 10.5956 17.7747V26.6307H0V2.75098H15.6035ZM10.5956 12.2923H10.8592C12.8097 12.2923 13.7058 11.607 13.7058 10.0256C13.7058 9.02402 13.1787 7.65344 11.2282 7.65344H10.5956V12.2923Z" fill="white"/>
<path d="M73.5374 2.75098C81.2864 2.75098 82.8152 6.65186 82.8152 9.44574C82.8152 11.3962 82.1299 13.1885 79.705 14.5591C82.7097 16.1405 83.4477 17.9855 83.4477 20.0414C83.4477 23.7314 80.8647 26.6307 75.277 26.6307H58.6191V2.75098H73.5374ZM69.1621 12.2396H69.4256C71.7451 12.2396 72.5885 11.607 72.5885 9.92017C72.5885 8.6023 71.9559 7.60072 69.7946 7.60072H69.1621V12.2396ZM69.1621 21.412H69.4784C71.9032 21.412 72.8521 20.7267 72.8521 18.9344C72.8521 17.3529 72.1141 16.2459 69.9001 16.2459H69.1621V21.412Z" fill="white"/>
<path d="M86.6631 2.75098H97.2587V20.6212H106.537V26.6307H86.6631V2.75098Z" fill="white"/>
<path d="M109.752 2.75098V26.6307H133.632V2.75098H109.752ZM124.038 17.0366H119.346V12.3978H123.985V17.0366H124.038Z" fill="white"/>
<path d="M136.479 2.75098H148.023L151.555 7.12629L154.929 2.75098H166.42L157.354 14.5063L167 26.6834H155.403L151.608 21.9391L147.97 26.6834H136.479L145.809 14.6118L136.479 2.75098Z" fill="white"/>
</svg>
