<svg width="147" height="24" viewBox="0 0 147 24" fill="none" xmlns="http://www.w3.org/2000/svg">
<path fill-rule="evenodd" clip-rule="evenodd" d="M0 23.0518L5.12059 0H14.2619L14.6792 12.8776L20.8328 0H29.9958L24.8543 23.0518H18.2173L20.9641 10.6577L14.7896 23.0518H10.0204L9.77863 10.6577L6.70226 23.0518H0ZM30.7879 3.75721H36.9624L37.7972 0H31.6001L30.7879 3.75721ZM32.6774 23.0744L26.4586 23.0518L30.2601 5.97708H36.479L32.6774 23.0744ZM56.2353 5.97708H61.795L61.3115 8.08654C62.081 7.14139 63.0036 6.54836 64.1688 6.15273C65.1039 5.84123 66.0838 5.68526 67.0695 5.69103L65.6409 11.2507C65.2896 11.2507 60.9828 10.4151 59.642 16.9861L58.2578 23.0727H52.3894L56.2353 5.97708Z" fill="white"/>
<path fill-rule="evenodd" clip-rule="evenodd" d="M52.9836 16.7453C52.9836 16.8766 51.028 23.7328 42.4354 23.558C30.9196 23.3163 33.9089 4.85722 46.9839 5.51632C54.4114 5.88936 54.0383 12.0647 53.9722 12.329H47.5552C47.643 12.0873 47.863 9.53784 45.8188 9.58217C42.0172 9.69258 39.3139 19.1191 43.5111 19.2077C45.4449 19.2738 46.3466 17.0322 46.5222 16.747H52.9836V16.7453ZM108.12 23.6241C95.6161 23.0963 99.3733 4.68074 112.207 5.29634C124.272 5.88937 120.843 24.1293 108.12 23.6241ZM111.789 9.31703C107.636 8.48228 104.537 18.4591 108.495 19.2721C112.888 20.1956 115.834 10.1309 111.789 9.31703Z" fill="white"/>
<path fill-rule="evenodd" clip-rule="evenodd" d="M131.546 3.44996C129.83 3.44996 129.503 4.10906 129.217 5.40552L129.105 5.97679H132.732L133.634 1.8457H139.302L138.423 5.97679H141.346L140.49 9.9105H137.566L135.961 17.404C135.896 17.8214 135.742 18.1944 135.896 18.6561C136.138 19.337 138.577 19.0526 138.577 19.0526L137.633 22.9646C137.633 22.9646 132.666 23.5358 130.995 22.3707C130.248 21.8655 129.435 20.8108 129.941 18.5474L131.852 9.93308L128.446 9.91133L125.568 23.0524H119.458L122.315 9.91133H119.172L120.051 5.97763H123.106C123.654 3.78034 124.138 2.28566 125.5 1.1431C127.369 -0.373335 132.226 0.219692 132.226 0.219692L131.546 3.44996ZM76.695 17.2066L88.297 17.1849C88.297 17.1849 87.3084 19.756 90.9568 19.7786C93.4837 19.7786 94.4723 16.8997 91.0664 16.3066C89.5065 16.0206 83.4633 15.0093 84.145 10.3505C84.7171 6.52716 88.6935 5.18638 93.0454 5.25245C101.946 5.36202 100.276 10.593 100.385 10.9443H94.4514C94.4514 10.9443 95.0888 8.74703 92.408 8.74703C89.969 8.74703 89.3743 10.9443 92.1872 11.5373C95.6166 12.2851 99.5503 12.4608 99.7686 16.8779C99.8338 18.1091 99.1103 23.8654 90.143 23.6906C81.9243 23.5149 81.3539 19.6473 81.573 17.8456C80.0783 20.9881 76.342 23.7792 71.3544 23.6036C58.8507 23.208 62.6523 4.68201 75.4638 5.3202C81.2878 5.60542 83.5077 10.0226 82.8034 14.3737C82.6938 15.1432 82.6286 15.2527 82.4078 15.3188L76.695 17.2066ZM75.0021 9.29489C70.8919 8.48188 67.8163 18.4144 71.7492 19.25C76.102 20.1517 79.0244 10.1087 75.0021 9.29489ZM144.775 5.95505C147.742 5.95505 147.742 10.3722 144.775 10.3722C141.808 10.3722 141.808 5.95505 144.775 5.95505ZM144.775 6.35067C142.292 6.35067 142.292 9.95483 144.775 9.95483C147.279 9.95483 147.279 6.35067 144.775 6.35067ZM145.17 8.41581L145.61 9.29489H145.082L144.731 8.41581H144.422L144.291 9.36096H143.829L144.203 7.00978H145.279C145.279 7.00978 145.872 7.16368 145.828 7.73495C145.764 8.4158 145.215 8.41581 145.17 8.41581ZM145.059 7.31758H144.622L144.511 8.08709H144.95C144.95 8.08709 145.389 8.15317 145.433 7.71321C145.433 7.31758 145.059 7.31758 145.059 7.31758Z" fill="white"/>
</svg>
