<svg width="624" height="394" viewBox="0 0 624 394" fill="none" xmlns="http://www.w3.org/2000/svg">
<path d="M1.34473 317.843V103.774H16.0221" stroke="#EC29FC" stroke-width="0.679434" stroke-miterlimit="10"/>
<path d="M1.34473 392.656H151.747L162.698 367.319" stroke="#EC29FC" stroke-width="0.743263" stroke-miterlimit="10"/>
<path d="M1.34473 322.282V324.745" stroke="#EC29FC" stroke-width="0.868976" stroke-miterlimit="10"/>
<path d="M1.34473 329.378V331.84" stroke="#EC29FC" stroke-width="0.868976" stroke-miterlimit="10"/>
<path d="M1.34473 336.474V338.936" stroke="#EC29FC" stroke-width="0.868976" stroke-miterlimit="10"/>
<path d="M1.34473 343.569V346.031" stroke="#EC29FC" stroke-width="0.868976" stroke-miterlimit="10"/>
<path d="M1.34473 350.665V353.127" stroke="#EC29FC" stroke-width="0.868976" stroke-miterlimit="10"/>
<path d="M1.34473 357.76V360.223" stroke="#EC29FC" stroke-width="0.868976" stroke-miterlimit="10"/>
<path d="M1.34473 364.856V367.319" stroke="#EC29FC" stroke-width="0.868976" stroke-miterlimit="10"/>
<path d="M1.34473 371.952V374.446" stroke="#EC29FC" stroke-width="0.868976" stroke-miterlimit="10"/>
<path d="M1.34473 379.047V381.542" stroke="#EC29FC" stroke-width="0.868976" stroke-miterlimit="10"/>
<path d="M1.34473 386.143V388.638" stroke="#EC29FC" stroke-width="0.868976" stroke-miterlimit="10"/>
<path d="M623.236 317.843V103.774H608.526" stroke="#06F0F6" stroke-width="0.679434" stroke-miterlimit="10"/>
<path d="M623.236 392.656H472.834L461.688 367.319" stroke="#06F0F6" stroke-width="0.743263" stroke-miterlimit="10"/>
<path d="M623.236 322.282V324.745" stroke="#06F0F6" stroke-width="0.868976" stroke-miterlimit="10"/>
<path d="M623.236 329.378V331.84" stroke="#06F0F6" stroke-width="0.868976" stroke-miterlimit="10"/>
<path d="M623.236 336.474V338.936" stroke="#06F0F6" stroke-width="0.868976" stroke-miterlimit="10"/>
<path d="M623.236 343.569V346.031" stroke="#06F0F6" stroke-width="0.868976" stroke-miterlimit="10"/>
<path d="M623.236 350.665V353.127" stroke="#06F0F6" stroke-width="0.868976" stroke-miterlimit="10"/>
<path d="M623.236 357.76V360.223" stroke="#06F0F6" stroke-width="0.868976" stroke-miterlimit="10"/>
<path d="M623.236 364.856V367.319" stroke="#06F0F6" stroke-width="0.868976" stroke-miterlimit="10"/>
<path d="M623.236 371.952V374.446" stroke="#06F0F6" stroke-width="0.868976" stroke-miterlimit="10"/>
<path d="M623.236 379.047V381.542" stroke="#06F0F6" stroke-width="0.868976" stroke-miterlimit="10"/>
<path d="M623.236 386.143V388.638" stroke="#06F0F6" stroke-width="0.868976" stroke-miterlimit="10"/>
<path d="M379.91 0.320312L365.816 15.2569H312.971H260.126L246.065 0.320312H16.0225V1.06553H245.741L259.802 16.0021H312.971H366.14L380.202 1.06553H609.92V0.320312H379.91Z" fill="url(#paint0_linear_86_65860)"/>
<path d="M16.0225 8.16113V11.9196" stroke="#06F0F6" stroke-width="0.602322" stroke-miterlimit="10"/>
<path d="M16.0225 17.9785V21.7369" stroke="#20DAF7" stroke-width="0.602322" stroke-miterlimit="10"/>
<path d="M16.0225 27.7959V31.5867" stroke="#39C4F7" stroke-width="0.602322" stroke-miterlimit="10"/>
<path d="M16.0225 37.6455V41.4039" stroke="#53AEF8" stroke-width="0.602322" stroke-miterlimit="10"/>
<path d="M16.0225 47.4629V51.2213" stroke="#6C98F9" stroke-width="0.602322" stroke-miterlimit="10"/>
<path d="M16.0225 57.2798V61.0706" stroke="#8681F9" stroke-width="0.602322" stroke-miterlimit="10"/>
<path d="M16.0225 67.1299V70.8883" stroke="#9F6BFA" stroke-width="0.602322" stroke-miterlimit="10"/>
<path d="M16.0225 76.9468V80.7052" stroke="#B955FB" stroke-width="0.602322" stroke-miterlimit="10"/>
<path d="M16.0225 86.7642V90.555" stroke="#D23FFB" stroke-width="0.602322" stroke-miterlimit="10"/>
<path d="M16.0225 96.6138V100.372" stroke="#EC29FC" stroke-width="0.602322" stroke-miterlimit="10"/>
<path d="M608.526 8.16113V11.9196" stroke="#06F0F6" stroke-width="0.602322" stroke-miterlimit="10"/>
<path d="M608.526 17.9785V21.7369" stroke="#20DAF7" stroke-width="0.602322" stroke-miterlimit="10"/>
<path d="M608.526 27.7959V31.5867" stroke="#39C4F7" stroke-width="0.602322" stroke-miterlimit="10"/>
<path d="M608.526 37.6455V41.4039" stroke="#53AEF8" stroke-width="0.602322" stroke-miterlimit="10"/>
<path d="M608.526 47.4629V51.2213" stroke="#6C98F9" stroke-width="0.602322" stroke-miterlimit="10"/>
<path d="M608.526 57.2798V61.0706" stroke="#8681F9" stroke-width="0.602322" stroke-miterlimit="10"/>
<path d="M608.526 67.1299V70.8883" stroke="#9F6BFA" stroke-width="0.602322" stroke-miterlimit="10"/>
<path d="M608.526 76.9468V80.7052" stroke="#B955FB" stroke-width="0.602322" stroke-miterlimit="10"/>
<path d="M608.526 86.7642V90.555" stroke="#D23FFB" stroke-width="0.602322" stroke-miterlimit="10"/>
<path d="M608.526 96.6138V100.372" stroke="#EC29FC" stroke-width="0.602322" stroke-miterlimit="10"/>
<defs>
<linearGradient id="paint0_linear_86_65860" x1="61.2902" y1="8.14953" x2="476.55" y2="8.14953" gradientUnits="userSpaceOnUse">
<stop stop-color="#06F0F6"/>
<stop offset="0.5108" stop-color="#0500E0"/>
<stop offset="0.5628" stop-color="#0A01E1"/>
<stop offset="0.627" stop-color="#1904E2"/>
<stop offset="0.6976" stop-color="#3308E6"/>
<stop offset="0.7728" stop-color="#560EEA"/>
<stop offset="0.8517" stop-color="#8316EF"/>
<stop offset="0.9324" stop-color="#B920F6"/>
<stop offset="1" stop-color="#EC29FC"/>
</linearGradient>
</defs>
</svg>
